<?xml version="1.0" encoding="UTF-8"?>
<svg id="Layer_1" data-name="Layer 1" xmlns="http://www.w3.org/2000/svg" viewBox="0 0 1080 409.77">
  <defs>
    <style>
      .cls-1 {
        fill: #192138;
      }

      .cls-2 {
        fill: #b7a073;
      }
    </style>
  </defs>
  <g>
    <path class="cls-1" d="M622.13,87.28c-41.54,0-75.21,33.67-75.21,75.21,0,35.35,24.39,64.99,57.26,73.03.61.17,1.23.3,1.86.43l.43-.83,7.45-14.32,33.79-13.71,13.92,13.38v6.02c.63-.38,1.24-.78,1.85-1.18,20.4-13.44,33.87-36.56,33.87-62.82,0-41.54-33.67-75.21-75.21-75.21ZM594.86,178.38l4.77-13.06,1.98-9.76c.94.03,1.78.11,2.41.3.91.28,4.34,1.62,8.68,3.31,4.66,1.83,8.96,3.49,12.87,4.98h0c-.29,2.34-.72,5.47-1.29,8.96-3.37-6.32-9.33-7.7-11.52-7.99-.41-2.68-2.72-4.74-5.52-4.74-3.07,0-5.58,2.5-5.58,5.58s2.5,5.58,5.58,5.58c2.73,0,5.01-1.97,5.49-4.56,2.22.32,8.22,1.86,10.83,9.04l-13.72,9.18-11.43-4.16-3.55-2.67ZM643.43,131.03c-.26,3.54-2.41,29.45-3.01,36.61-8.91-3.07-20.58-7.64-27.05-10.17-4.55-1.78-7.84-3.06-8.82-3.36-.71-.22-1.6-.33-2.57-.37l6.45-31.69c20.72,3.6,33.96,7.36,34.98,8.98ZM610.98,165.95v.03c0,2.06-1.68,3.73-3.74,3.73s-3.73-1.67-3.73-3.73,1.67-3.74,3.73-3.74,3.72,1.65,3.74,3.71ZM609.04,186.88v21.84c-3.51,2.8-7.53,5.61-10.14,6.32v-31.85l10.14,3.69ZM610.88,207.1v-20.36l12.49-8.36h0c-1.88,10.19-4.67,21.43-7.98,24.86-.12.13-.24.24-.36.34l-.08.06-4.06,3.46h0ZM624.89,180.35c.16.54.3,1.06.44,1.57,1.73,6.13,2.94,10.41,8.21,12.72l-14.96,7.19c2.69-4.95,4.82-13.64,6.31-21.48ZM627.11,181.43c-.42-1.52-.9-3.23-1.5-5.08.89-5.14,1.47-9.49,1.72-11.51h0c5,1.88,9.32,3.46,12.93,4.69h0s-.26,10.86-.26,10.86l-3.63,10.89-.96,2.11c-5.46-1.84-6.44-5.32-8.32-11.97ZM614.41,218.62l1.67-11.1,3.98,8.81-5.65,2.3ZM621.78,215.63l-4.94-10.92h0l18.9-9.08,10.5,10.07-24.47,9.93Z"/>
    <path class="cls-1" d="M223.25,208.83c-1.51,3.98-3.49,7.47-5.96,10.48-2.47,3.01-5.21,5.58-8.22,7.7-3.02,2.13-6.03,3.74-9.04,4.83-5.21,1.92-11.03,3.08-17.47,3.49-6.44.41-12.67.62-18.7.62h-70.9v-2.05c3.42-.55,6.68-1.44,9.76-2.67s5.58-2.94,7.5-5.14c.68-.82,1.23-2.02,1.64-3.6.41-1.57.79-3.39,1.13-5.45.34-2.06.58-4.21.72-6.47.14-2.26.21-4.49.21-6.68,0-1.92.03-4.52.1-7.81.07-3.29.13-6.88.21-10.79.07-3.91.1-7.91.1-12.02v-31.85c0-3.01-.03-6.09-.1-9.25-.07-3.15-.1-6.78-.1-10.89,0-2.47-.07-4.96-.21-7.5-.14-2.54-.38-4.96-.72-7.3-.34-2.33-.75-4.42-1.23-6.27-.48-1.85-1.13-3.19-1.95-4.01-2.06-2.19-4.11-3.67-6.17-4.42-2.05-.75-4.93-1.34-8.63-1.75v-2.06h69.25c5.2,0,10.17.31,14.9.93,4.73.62,9.28,1.75,13.67,3.39,6.99,2.61,12.74,6.58,17.26,11.92,4.52,5.34,6.78,12.12,6.78,20.34,0,9.04-2.91,16.34-8.73,21.89-5.82,5.55-13.39,9.28-22.71,11.2v.82c4.93.55,9.79,1.75,14.59,3.6,4.79,1.85,9.07,4.35,12.84,7.5,3.77,3.15,6.78,6.88,9.04,11.2,2.26,4.31,3.39,9.21,3.39,14.69,0,4.93-.75,9.39-2.26,13.36ZM188.22,106.29c-3.49-5.34-7.84-9.18-13.05-11.51-6.16-2.74-14.04-4.11-23.63-4.11-2.88,0-5.48.14-7.81.41-2.33.27-4.11.62-5.34,1.03-.14.82-.28,1.58-.41,2.26-.14.69-.24,1.54-.31,2.57-.07,1.03-.14,2.29-.21,3.8-.07,1.51-.17,3.49-.31,5.96-.14,4.8-.24,10.07-.31,15.82-.07,5.75-.1,11.23-.1,16.44v19.73h11.51c3.15,0,5.68-.07,7.6-.21,12.33-.68,21.68-4.18,28.05-10.48,6.37-6.3,9.56-14.11,9.56-23.43,0-6.85-1.75-12.95-5.24-18.29ZM199.52,186.54c-1.3-3.49-3.08-6.71-5.34-9.66-2.26-2.94-4.93-5.48-8.01-7.6s-6.47-3.8-10.17-5.04c-3.02-.95-5.99-1.61-8.94-1.95-2.95-.34-6.41-.51-10.38-.51h-19.93v25.69c0,3.84.03,7.36.1,10.58.07,3.22.1,5.99.1,8.32.14,5.21.38,9.49.72,12.84.34,3.36,1.34,6.13,2.98,8.32,1.23,1.51,3.08,2.77,5.55,3.8,2.47,1.03,6.03,1.54,10.69,1.54,3.97,0,8.29-.27,12.95-.82,4.66-.55,9.18-1.98,13.56-4.31,5.75-3.01,10.2-7.02,13.36-12.02,3.15-5,4.73-10.99,4.73-17.98,0-3.97-.65-7.71-1.95-11.2Z"/>
    <path class="cls-1" d="M329.29,235.96v-2.05c.41,0,1.41-.14,2.98-.41s3.22-.75,4.93-1.44,3.22-1.65,4.52-2.88c1.3-1.23,1.96-2.81,1.96-4.73,0-1.23-.38-3.25-1.13-6.06-.76-2.81-1.82-6.23-3.18-10.28-1.37-4.04-2.95-8.53-4.73-13.46-1.78-4.93-3.7-10.07-5.75-15.41h-54.66c-2.06,5.21-4.04,10.17-5.96,14.9-1.92,4.73-3.84,9.49-5.75,14.28-2.88,7.4-4.31,12.61-4.31,15.62,0,1.78.55,3.25,1.64,4.42,1.09,1.16,2.5,2.12,4.21,2.88,1.71.75,3.56,1.3,5.55,1.64,1.98.34,3.87.65,5.65.93v2.05h-43.77v-2.26c3.56-.41,6.61-1.37,9.14-2.88,2.53-1.51,4.01-2.53,4.42-3.08.96-.96,2.53-3.22,4.73-6.78,2.19-3.56,4.86-8.84,8.01-15.82,2.88-6.44,6.09-13.77,9.66-21.99,3.56-8.22,7.22-16.68,10.99-25.38,3.77-8.7,7.5-17.47,11.2-26.3,3.7-8.84,7.19-17.09,10.48-24.76l-2.06-4.52c2.47-1.09,4.69-2.4,6.68-3.9,1.98-1.51,3.73-3.08,5.24-4.73,1.51-1.65,2.77-3.22,3.8-4.73,1.02-1.51,1.81-2.74,2.36-3.7h1.65c4.25,11.37,8.29,22.16,12.12,32.36,3.83,10.21,7.5,20.04,10.99,29.49,3.5,9.45,6.89,18.6,10.17,27.43,3.29,8.83,6.58,17.57,9.87,26.2,1.51,4.25,2.91,7.78,4.21,10.58,1.3,2.81,2.77,5.99,4.42,9.56.27.55.89,1.51,1.85,2.88.96,1.37,2.22,2.77,3.8,4.21,1.58,1.44,3.53,2.71,5.86,3.8,2.33,1.1,5.07,1.72,8.22,1.85v2.47h-60.01ZM302.37,111.43c-.82,1.78-2.02,4.59-3.6,8.43-1.58,3.84-3.53,8.5-5.86,13.97-2.33,5.48-4.9,11.68-7.71,18.6-2.81,6.92-5.86,14.42-9.14,22.5h51.17c-2.33-6.16-4.69-12.33-7.09-18.49-2.4-6.16-4.73-12.09-6.99-17.78-2.26-5.68-4.31-10.89-6.16-15.62s-3.39-8.59-4.62-11.61Z"/>
    <path class="cls-1" d="M504.37,235.96c-1.23-1.23-2.13-2.16-2.67-2.77-.55-.62-1.16-1.34-1.85-2.16-.69-.82-1.54-2.02-2.57-3.6-1.03-1.57-2.64-3.93-4.83-7.09-2.6-3.83-4.9-7.3-6.88-10.38-1.99-3.08-4.01-6.13-6.06-9.14-2.05-3.01-4.28-6.06-6.68-9.14-2.4-3.08-5.24-6.54-8.53-10.38-2.74-3.15-5.72-6.09-8.94-8.84-3.22-2.74-6.61-4.45-10.17-5.14-2.61-.55-4.59-.82-5.96-.82-1.23,0-2.81-.07-4.73-.2v23.22c0,6.58.07,12.12.21,16.65.13,4.38.27,8.15.41,11.3.14,3.15.89,5.75,2.26,7.81,1.1,1.78,3.22,3.6,6.37,5.45,3.15,1.85,7.53,2.91,13.15,3.19v2.05h-65.76v-2.05c3.42-.55,6.71-1.37,9.86-2.47,3.15-1.09,5.62-2.74,7.4-4.93.68-.82,1.23-2.05,1.64-3.7.41-1.64.72-3.49.93-5.55.2-2.05.38-4.25.51-6.58.13-2.33.21-4.59.21-6.78,0-1.92.03-4.52.1-7.81.07-3.29.13-6.88.21-10.79.07-3.91.1-7.91.1-12.02v-51.99c0-2.47-.04-4.96-.1-7.5-.07-2.54-.21-4.93-.41-7.19-.21-2.26-.55-4.31-1.03-6.16-.48-1.85-1.13-3.18-1.95-4.01-2.05-2.19-4.35-3.66-6.88-4.42-2.54-.75-5.65-1.4-9.35-1.95v-2.06h8.42c4.66,0,9.93-.03,15.82-.1,5.89-.07,11.78-.1,17.67-.1h14.38c9.18,0,17.33.27,24.45.82,7.12.55,13.63,2.4,19.52,5.55,6.03,3.15,10.89,7.43,14.59,12.84,3.7,5.41,5.55,12.23,5.55,20.45,0,5.07-.93,9.63-2.78,13.67-1.85,4.04-4.31,7.6-7.4,10.68s-6.68,5.72-10.79,7.91c-4.11,2.19-8.43,4.04-12.94,5.55v.62c2.33,1.23,4.59,3.01,6.78,5.34,2.19,2.33,4.31,4.93,6.37,7.81,3.56,5.21,7.43,10.82,11.61,16.85,4.18,6.03,7.91,11.37,11.2,16.03,5.07,7.12,10,12.33,14.8,15.62,4.79,3.29,10.41,5.41,16.85,6.37v2.05h-42.13ZM484.03,107.94c-3.43-5.34-8.43-9.59-15-12.74-3.29-1.51-6.75-2.6-10.38-3.29-3.63-.68-7.43-1.03-11.41-1.03-2.88,0-5.21.07-6.99.21-1.78.14-3.15.27-4.11.41-.14.82-.28,1.54-.41,2.16-.14.62-.24,1.4-.31,2.36-.07.96-.14,2.3-.21,4.01-.07,1.72-.17,4.15-.31,7.3-.14,4.8-.24,10.21-.31,16.24-.07,6.03-.1,11.85-.1,17.47v22.6c5.62,0,10.86-.24,15.72-.72,4.86-.48,9.56-1.47,14.08-2.98,4.38-1.37,8.15-3.22,11.3-5.55,3.15-2.33,5.72-4.96,7.71-7.91,1.98-2.94,3.46-6.13,4.42-9.56.96-3.42,1.44-6.99,1.44-10.68,0-6.85-1.71-12.95-5.14-18.29Z"/>
    <path class="cls-1" d="M866.97,93.96c-3.08,1.92-5.45,4.86-7.09,8.84-.96,2.05-1.58,5.86-1.85,11.4-.28,5.55-.55,11.48-.82,17.78-.28,5.89-.51,12.84-.72,20.86-.2,8.01-.31,16.61-.31,25.79v13.15c0,4.8.03,9.69.1,14.69.07,5,.1,9.96.1,14.9v13.36c0,.55-.17,1-.51,1.34-.34.34-.86.51-1.54.51-1.1,0-2.33-.68-3.7-2.05-11.65-13.43-22.26-25.76-31.85-36.99-9.59-11.23-18.73-21.95-27.43-32.16-8.7-10.2-17.23-20.17-25.58-29.9-8.36-9.72-17.2-19.79-26.51-30.21v86.72c0,6.99.17,13.29.51,18.91.34,5.62,1.2,9.8,2.57,12.53,1.51,3.15,3.87,5.52,7.09,7.09,3.22,1.58,7.64,2.71,13.26,3.39v2.05h-50.55v-2.05c3.29-.41,6.58-1.26,9.86-2.57,3.29-1.3,5.89-3.46,7.81-6.48,1.92-2.88,3.15-7.12,3.7-12.74.55-5.62.96-12.33,1.23-20.14.27-5.89.48-12.84.62-20.86.13-8.01.2-16.61.2-25.79v-25.07c0-2.74-.07-6.09-.2-10.07-.41-3.97-1.37-7.22-2.88-9.76-1.51-2.53-3.29-4.52-5.34-5.96-2.05-1.44-4.28-2.47-6.68-3.08-2.4-.62-4.7-1.06-6.89-1.33v-2.06h41.72l97.4,113.84v-69.87c0-5.48-.07-10.72-.2-15.72-.14-5-.76-8.94-1.85-11.82-1.37-3.83-3.8-6.95-7.3-9.35-3.49-2.4-8.53-4.07-15.1-5.03v-2.06h50.96v2.06c-5.07.69-9.14,1.99-12.23,3.9Z"/>
    <path class="cls-1" d="M995.81,213.15c-2.67,5.21-6.37,9.66-11.1,13.36-4.73,3.7-10.38,6.44-16.95,8.22-6.58,1.78-13.77,2.67-21.58,2.67-6.72,0-12.47-.41-17.26-1.23-4.8-.82-8.77-1.81-11.92-2.98-3.15-1.16-5.52-2.23-7.09-3.19-1.58-.96-2.57-1.44-2.98-1.44s-1.3.82-2.67,2.47c-1.37,1.64-2.61,3.22-3.7,4.73h-1.85l-.62-40.89h2.05c1.23,3.7,2.81,7.3,4.73,10.79,1.92,3.49,4.01,6.78,6.27,9.86,2.26,3.08,4.66,5.79,7.19,8.12,2.53,2.33,4.96,4.11,7.3,5.34,2.33,1.23,5.41,2.47,9.25,3.7,3.83,1.23,7.53,1.85,11.1,1.85,10.14,0,18.36-2.77,24.66-8.32,6.3-5.55,9.45-13.05,9.45-22.5,0-3.83-.62-7.19-1.85-10.07-1.23-2.88-2.91-5.38-5.03-7.5-2.13-2.12-4.62-3.93-7.5-5.45-2.88-1.51-5.96-2.88-9.25-4.11-3.29-1.23-6.16-2.26-8.63-3.08-2.47-.82-4.76-1.61-6.88-2.36s-4.31-1.51-6.58-2.26c-2.26-.75-4.97-1.75-8.12-2.98-3.56-1.37-6.98-3.25-10.27-5.65-3.29-2.4-6.17-5.2-8.63-8.43-2.47-3.22-4.45-6.78-5.96-10.68-1.51-3.91-2.26-8.05-2.26-12.43,0-7.4,1.35-13.77,4.05-19.11,2.7-5.34,6.33-9.79,10.89-13.36,4.56-3.56,9.82-6.2,15.78-7.91,5.96-1.71,12.23-2.57,18.8-2.57,6.16,0,11.44.51,15.82,1.54,4.38,1.03,7.98,2.16,10.79,3.39,2.81,1.23,4.93,2.36,6.37,3.39,1.44,1.03,2.22,1.54,2.36,1.54.41,0,1.26-.82,2.57-2.47,1.3-1.64,2.5-3.29,3.6-4.93h2.26v38.02h-2.26c-1.64-4.52-3.77-9.01-6.37-13.46-2.61-4.45-5.62-8.43-9.04-11.92-3.43-3.49-7.33-6.34-11.71-8.53-4.39-2.19-9.25-3.29-14.59-3.29-4.25,0-8.25.62-12.02,1.85-3.77,1.23-7.06,3.08-9.86,5.55-2.81,2.47-5,5.52-6.58,9.14-1.58,3.63-2.36,7.78-2.36,12.43,0,7.26,2.19,13.08,6.56,17.47,4.37,4.39,10.04,7.88,17.01,10.48,2.73,1.1,5.29,2.06,7.68,2.88,2.39.82,4.75,1.61,7.08,2.36,2.32.76,4.68,1.54,7.07,2.36,2.39.82,4.89,1.71,7.48,2.67,9.29,3.43,16.5,8.39,21.63,14.9,5.12,6.51,7.69,14.62,7.69,24.35,0,6.58-1.33,12.47-4.01,17.67Z"/>
  </g>
  <g>
    <path class="cls-2" d="M281.65,289.9c0,4.86-.44,9.02-1.31,12.47-.87,3.45-2.1,6.35-3.69,8.69-1.59,2.34-3.48,4.19-5.67,5.54-2.19,1.35-4.61,2.39-7.25,3.11-2.64.72-5.45,1.19-8.42,1.4-2.97.21-6.05.32-9.23.32h-13.33v-63.05h13.33c3.18,0,6.26.11,9.23.32s5.78.68,8.42,1.39c2.64.72,5.06,1.76,7.25,3.11,2.19,1.35,4.08,3.2,5.67,5.54,1.59,2.34,2.82,5.24,3.69,8.69.87,3.45,1.31,7.61,1.31,12.47ZM250.67,319.9c4.56,0,8.29-.87,11.17-2.61,2.88-1.74,5.13-4.02,6.75-6.84,1.62-2.82,2.73-6.03,3.33-9.64.6-3.6.9-7.24.9-10.9s-.3-7.39-.9-10.99c-.6-3.6-1.71-6.81-3.33-9.64-1.62-2.82-3.87-5.12-6.75-6.89-2.88-1.77-6.61-2.66-11.17-2.66h-9.19v60.16h9.19Z"/>
    <path class="cls-2" d="M344.72,321.43v-63.05h8.74v63.05h-8.74Z"/>
    <path class="cls-2" d="M436.97,293.15v-1.44h31.52v29.72l-8.02-1.44c-3.66,1.56-8.02,2.34-13.06,2.34s-9.11-.8-12.93-2.39c-3.81-1.59-7.06-3.81-9.73-6.67-2.67-2.85-4.71-6.27-6.12-10.27-1.41-3.99-2.12-8.36-2.12-13.11s.7-9.19,2.12-13.15c1.41-3.96,3.45-7.37,6.12-10.22,2.67-2.85,5.91-5.07,9.73-6.67,3.81-1.59,8.12-2.39,12.93-2.39,3.72,0,6.93.47,9.64,1.39,2.7.93,4.92,2.1,6.67,3.51,1.74,1.41,3.05,2.94,3.92,4.59.87,1.65,1.31,3.2,1.31,4.64h-8.83c0-2.22-.32-4.13-.95-5.72-.63-1.59-1.52-2.91-2.66-3.96-1.14-1.05-2.48-1.82-4.01-2.3-1.53-.48-3.2-.72-5-.72-2.94,0-5.76.62-8.47,1.84-2.7,1.23-5.07,3.11-7.12,5.63-2.04,2.52-3.66,5.74-4.86,9.64-1.2,3.9-1.8,8.53-1.8,13.87s.6,9.97,1.8,13.87c1.2,3.9,2.82,7.12,4.86,9.64,2.04,2.52,4.41,4.4,7.12,5.63,2.7,1.23,5.52,1.85,8.47,1.85,2.52,0,4.79-.21,6.8-.63,2.01-.42,3.83-.96,5.45-1.62v-25.49h-22.79Z"/>
    <path class="cls-2" d="M532.01,321.43v-63.05h8.74v63.05h-8.74Z"/>
    <path class="cls-2" d="M629.21,321.43v-61.6h-25.4v-1.44h59.44v1.44h-25.31v61.6h-8.74Z"/>
    <path class="cls-2" d="M764.6,298.55h-28.37l-8.47,22.88h-1.44l23.42-63.05h9.37l23.42,63.05h-9.36l-8.56-22.88ZM764.15,297.2l-13.69-36.83-13.69,36.83h27.38Z"/>
    <path class="cls-2" d="M886.84,321.43h-41.25v-63.05h8.74v61.6h32.51v1.44Z"/>
  </g>
</svg>