<?xml version="1.0" encoding="UTF-8"?>
<svg id="Layer_1" data-name="Layer 1" xmlns="http://www.w3.org/2000/svg" viewBox="0 0 1589.57 761.51">
  <defs>
    <style>
      .cls-1 {
        fill: #fff;
      }
    </style>
  </defs>
  <path class="cls-1" d="M887.77,276.68c-58.44,0-105.81,47.37-105.81,105.81,0,49.74,34.31,91.43,80.55,102.74.86.23,1.73.43,2.61.61l.61-1.17,10.48-20.14,47.54-19.28,19.58,18.82v8.47c.88-.53,1.74-1.09,2.6-1.66,28.7-18.91,47.65-51.44,47.65-88.38,0-58.44-47.37-105.81-105.81-105.81ZM849.41,404.84l6.71-18.38,2.79-13.73c1.32.04,2.51.16,3.39.43,1.29.39,6.1,2.27,12.21,4.66,6.56,2.57,12.61,4.91,18.1,7h0c-.4,3.3-1.01,7.7-1.82,12.61-4.74-8.9-13.13-10.83-16.21-11.25-.57-3.77-3.83-6.66-7.77-6.66-4.32,0-7.84,3.52-7.84,7.86s3.52,7.84,7.84,7.84c3.84,0,7.05-2.77,7.73-6.42,3.12.45,11.57,2.61,15.23,12.71l-19.3,12.92-16.08-5.86-5-3.75ZM917.74,338.22c-.36,4.97-3.39,41.42-4.23,51.5-12.53-4.32-28.95-10.75-38.05-14.31-6.4-2.51-11.03-4.31-12.4-4.73-1-.31-2.25-.47-3.61-.52l9.08-44.58c29.15,5.06,47.78,10.35,49.22,12.64ZM872.09,387.35v.04c0,2.9-2.36,5.25-5.26,5.25s-5.25-2.35-5.25-5.25,2.35-5.26,5.25-5.26,5.23,2.32,5.26,5.22ZM869.36,416.8v30.72c-4.93,3.93-10.6,7.9-14.27,8.9v-44.81l14.27,5.19ZM871.96,445.24v-28.65l17.57-11.77h0c-2.65,14.34-6.57,30.15-11.22,34.97-.17.18-.34.34-.51.48l-.12.09-5.71,4.87h-.01ZM891.66,407.62c.22.77.43,1.49.62,2.21,2.43,8.62,4.13,14.65,11.54,17.89l-21.05,10.12c3.78-6.96,6.78-19.19,8.88-30.22ZM894.79,409.12c-.6-2.14-1.27-4.55-2.1-7.14,1.25-7.23,2.06-13.35,2.42-16.19h.01c7.04,2.65,13.12,4.87,18.19,6.6h0s-.36,15.28-.36,15.28l-5.1,15.32-1.35,2.97c-7.69-2.58-9.06-7.48-11.7-16.84ZM876.92,461.46l2.35-15.62,5.6,12.39-7.95,3.23ZM887.28,457.25l-6.95-15.36h.01l26.6-12.78,14.76,14.17-34.43,13.97Z"/>
  <path class="cls-1" d="M326.63,447.68c-2.12,5.59-4.91,10.51-8.39,14.75-3.47,4.24-7.33,7.85-11.56,10.84-4.24,2.99-8.48,5.26-12.72,6.79-7.33,2.7-15.52,4.34-24.57,4.92-9.06.58-17.83.87-26.31.87h-99.74v-2.89c4.81-.77,9.4-2.02,13.73-3.76,4.34-1.74,7.85-4.14,10.55-7.23.96-1.16,1.73-2.84,2.31-5.06.58-2.21,1.11-4.77,1.59-7.66.48-2.89.82-5.93,1.01-9.11.19-3.18.29-6.31.29-9.4,0-2.7.05-6.36.15-10.99.09-4.63.19-9.68.29-15.18.09-5.5.14-11.13.14-16.91v-44.81c0-4.24-.05-8.57-.14-13.01-.1-4.43-.15-9.54-.15-15.32,0-3.47-.1-6.98-.29-10.55-.19-3.57-.53-6.98-1.01-10.26-.48-3.28-1.06-6.22-1.73-8.82-.68-2.6-1.59-4.48-2.75-5.64-2.89-3.08-5.78-5.16-8.67-6.22-2.89-1.06-6.94-1.88-12.14-2.46v-2.89h97.42c7.32,0,14.31.43,20.96,1.3,6.65.87,13.05,2.46,19.22,4.77,9.83,3.66,17.92,9.25,24.28,16.77,6.36,7.52,9.54,17.06,9.54,28.62,0,12.72-4.1,22.98-12.29,30.79-8.19,7.81-18.84,13.06-31.95,15.75v1.16c6.94.77,13.78,2.46,20.53,5.06,6.74,2.6,12.76,6.12,18.07,10.55,5.3,4.44,9.54,9.68,12.72,15.75,3.18,6.07,4.77,12.96,4.77,20.67,0,6.94-1.06,13.2-3.18,18.79ZM277.33,303.42c-4.91-7.52-11.03-12.91-18.36-16.19-8.67-3.85-19.76-5.78-33.25-5.78-4.05,0-7.71.19-10.99.58-3.28.39-5.78.87-7.52,1.44-.19,1.16-.39,2.22-.58,3.18-.19.96-.34,2.17-.43,3.61-.1,1.44-.19,3.23-.29,5.35-.1,2.13-.24,4.92-.43,8.39-.19,6.75-.34,14.16-.43,22.26-.1,8.09-.15,15.81-.15,23.13v27.75h16.19c4.43,0,8-.09,10.7-.29,17.35-.96,30.5-5.88,39.46-14.74,8.96-8.86,13.44-19.85,13.44-32.96,0-9.63-2.46-18.21-7.37-25.73ZM293.24,416.32c-1.83-4.91-4.34-9.44-7.52-13.59-3.18-4.14-6.94-7.71-11.27-10.7-4.34-2.99-9.11-5.35-14.31-7.09-4.24-1.34-8.43-2.26-12.58-2.74-4.15-.48-9.01-.72-14.6-.72h-28.04v36.14c0,5.4.05,10.36.15,14.89.09,4.53.14,8.43.14,11.71.19,7.33.53,13.35,1.01,18.07.48,4.72,1.88,8.63,4.19,11.71,1.73,2.12,4.34,3.9,7.81,5.35,3.47,1.44,8.48,2.17,15.03,2.17,5.59,0,11.66-.38,18.21-1.15,6.55-.77,12.91-2.79,19.08-6.07,8.09-4.24,14.36-9.88,18.79-16.92,4.43-7.03,6.65-15.46,6.65-25.29,0-5.59-.92-10.84-2.75-15.76Z"/>
  <path class="cls-1" d="M475.8,485.84v-2.89c.58,0,1.98-.19,4.19-.58,2.21-.39,4.53-1.06,6.94-2.02,2.41-.96,4.53-2.31,6.36-4.05,1.83-1.74,2.75-3.95,2.75-6.65,0-1.74-.54-4.58-1.59-8.53-1.06-3.95-2.55-8.77-4.48-14.46-1.93-5.68-4.15-12-6.65-18.94-2.5-6.94-5.2-14.16-8.09-21.68h-76.9c-2.89,7.33-5.69,14.31-8.38,20.96-2.7,6.65-5.4,13.35-8.1,20.09-4.05,10.41-6.07,17.73-6.07,21.97,0,2.51.77,4.58,2.31,6.22,1.54,1.64,3.51,2.99,5.93,4.05,2.41,1.06,5.01,1.83,7.8,2.31,2.79.48,5.44.92,7.95,1.3v2.89h-61.58v-3.18c5.01-.58,9.3-1.93,12.87-4.05,3.56-2.12,5.64-3.56,6.22-4.33,1.34-1.35,3.56-4.53,6.65-9.54,3.08-5.01,6.84-12.43,11.27-22.26,4.05-9.05,8.57-19.37,13.59-30.93,5.01-11.57,10.16-23.46,15.47-35.71,5.3-12.24,10.55-24.57,15.75-37,5.2-12.43,10.12-24.04,14.74-34.84l-2.89-6.36c3.47-1.54,6.6-3.37,9.4-5.49,2.79-2.12,5.25-4.34,7.37-6.65,2.12-2.31,3.9-4.53,5.35-6.65,1.44-2.12,2.55-3.85,3.32-5.2h2.31c5.98,16,11.66,31.18,17.05,45.53,5.39,14.36,10.55,28.19,15.47,41.49,4.92,13.3,9.69,26.16,14.31,38.6,4.63,12.43,9.25,24.71,13.88,36.86,2.12,5.98,4.09,10.94,5.92,14.89,1.83,3.95,3.9,8.43,6.22,13.44.39.77,1.25,2.12,2.61,4.05,1.35,1.93,3.13,3.9,5.34,5.92,2.22,2.02,4.96,3.81,8.24,5.35,3.28,1.54,7.13,2.41,11.57,2.6v3.47h-84.42ZM437.93,310.65c-1.16,2.51-2.85,6.46-5.06,11.85-2.22,5.4-4.96,11.95-8.24,19.66-3.28,7.71-6.89,16.43-10.84,26.16-3.95,9.74-8.24,20.29-12.87,31.65h71.98c-3.28-8.67-6.6-17.35-9.97-26.02-3.38-8.67-6.65-17.01-9.83-25.01-3.18-7.99-6.07-15.32-8.67-21.97-2.6-6.65-4.77-12.09-6.5-16.33Z"/>
  <path class="cls-1" d="M722.11,485.84c-1.74-1.74-2.99-3.04-3.76-3.9-.77-.87-1.64-1.88-2.6-3.04-.96-1.16-2.17-2.84-3.61-5.06-1.44-2.21-3.71-5.54-6.79-9.97-3.66-5.39-6.89-10.26-9.68-14.6-2.8-4.33-5.64-8.62-8.53-12.87-2.89-4.24-6.03-8.53-9.4-12.87-3.37-4.33-7.37-9.2-12-14.6-3.86-4.43-8.05-8.57-12.58-12.43-4.53-3.85-9.3-6.26-14.31-7.23-3.66-.77-6.46-1.16-8.39-1.16-1.73,0-3.95-.09-6.65-.29v32.67c0,9.25.09,17.06.29,23.42.19,6.17.38,11.47.58,15.9.19,4.44,1.25,8.09,3.18,10.98,1.54,2.51,4.53,5.06,8.96,7.66,4.43,2.6,10.6,4.1,18.5,4.48v2.89h-92.51v-2.89c4.81-.77,9.44-1.93,13.88-3.47,4.43-1.54,7.9-3.85,10.41-6.94.96-1.16,1.73-2.89,2.31-5.2.58-2.31,1.01-4.91,1.3-7.81.29-2.89.53-5.97.72-9.25.19-3.28.29-6.45.29-9.54,0-2.7.04-6.36.14-10.99.09-4.63.19-9.68.29-15.18.09-5.5.15-11.13.15-16.91v-73.14c0-3.47-.05-6.98-.15-10.55-.1-3.57-.29-6.94-.58-10.12-.29-3.18-.77-6.07-1.44-8.67-.68-2.6-1.59-4.48-2.75-5.64-2.89-3.08-6.12-5.15-9.68-6.22-3.57-1.06-7.95-1.97-13.15-2.74v-2.89h11.85c6.55,0,13.98-.04,22.26-.15,8.29-.09,16.57-.14,24.86-.14h20.23c12.91,0,24.38.39,34.4,1.16,10.02.77,19.18,3.37,27.47,7.8,8.48,4.44,15.32,10.46,20.53,18.07,5.2,7.62,7.81,17.2,7.81,28.77,0,7.13-1.3,13.54-3.91,19.23-2.6,5.68-6.07,10.7-10.4,15.03-4.34,4.34-9.4,8.05-15.18,11.13-5.78,3.09-11.85,5.68-18.21,7.81v.87c3.27,1.74,6.45,4.24,9.54,7.52,3.08,3.28,6.07,6.94,8.96,10.99,5.01,7.33,10.45,15.23,16.33,23.71,5.88,8.48,11.13,16,15.75,22.55,7.13,10.02,14.07,17.35,20.82,21.97,6.74,4.63,14.64,7.62,23.7,8.96v2.89h-59.26ZM693.49,305.74c-4.82-7.52-11.85-13.49-21.1-17.93-4.63-2.12-9.5-3.66-14.6-4.63-5.11-.96-10.46-1.44-16.05-1.44-4.05,0-7.33.1-9.83.29-2.5.19-4.43.39-5.78.58-.2,1.15-.39,2.17-.58,3.04-.2.87-.34,1.98-.43,3.32-.1,1.35-.2,3.23-.29,5.64-.1,2.41-.24,5.83-.43,10.26-.19,6.75-.34,14.36-.43,22.84-.1,8.48-.15,16.67-.15,24.57v31.8c7.9,0,15.27-.33,22.12-1.01,6.84-.67,13.44-2.07,19.81-4.19,6.17-1.93,11.46-4.52,15.9-7.81,4.43-3.27,8.04-6.98,10.84-11.13,2.79-4.14,4.86-8.62,6.21-13.44,1.35-4.81,2.02-9.83,2.02-15.03,0-9.64-2.41-18.21-7.22-25.73Z"/>
  <path class="cls-1" d="M1232.22,286.08c-4.33,2.7-7.66,6.84-9.97,12.43-1.35,2.89-2.22,8.24-2.6,16.04-.39,7.81-.77,16.15-1.16,25.01-.39,8.29-.72,18.07-1.01,29.34-.29,11.27-.43,23.37-.43,36.28v18.5c0,6.75.04,13.64.15,20.67.09,7.04.14,14.02.14,20.96v18.79c0,.78-.24,1.4-.72,1.88-.48.48-1.21.72-2.17.72-1.54,0-3.28-.96-5.2-2.89-16.38-18.89-31.32-36.23-44.81-52.04-13.49-15.8-26.36-30.88-38.6-45.24-12.24-14.35-24.24-28.38-35.99-42.06-11.76-13.68-24.19-27.85-37.3-42.5v122c0,9.83.24,18.7.72,26.6.48,7.9,1.69,13.78,3.61,17.63,2.12,4.44,5.44,7.76,9.97,9.98,4.53,2.22,10.74,3.81,18.65,4.77v2.89h-71.12v-2.89c4.63-.58,9.25-1.78,13.88-3.61,4.63-1.83,8.29-4.87,10.99-9.11,2.7-4.05,4.43-10.02,5.2-17.92.77-7.9,1.35-17.35,1.74-28.33.38-8.28.67-18.07.87-29.34.19-11.27.29-23.37.29-36.28v-35.27c0-3.85-.1-8.57-.29-14.17-.58-5.59-1.93-10.16-4.05-13.73-2.13-3.56-4.63-6.36-7.52-8.39-2.89-2.02-6.02-3.47-9.39-4.33-3.38-.87-6.61-1.49-9.69-1.88v-2.89h58.69l137.03,160.16v-98.29c0-7.71-.1-15.08-.29-22.12-.19-7.03-1.06-12.58-2.6-16.62-1.93-5.39-5.35-9.78-10.26-13.15-4.91-3.37-12-5.73-21.25-7.08v-2.89h71.7v2.89c-7.13.96-12.87,2.8-17.2,5.49Z"/>
  <path class="cls-1" d="M1413.49,453.75c-3.76,7.33-8.96,13.59-15.61,18.79-6.65,5.2-14.6,9.06-23.85,11.56-9.25,2.5-19.37,3.76-30.36,3.76-9.45,0-17.54-.58-24.29-1.74-6.75-1.15-12.34-2.55-16.77-4.19-4.44-1.64-7.76-3.13-9.98-4.48-2.22-1.35-3.61-2.02-4.19-2.02s-1.83,1.16-3.76,3.47c-1.93,2.31-3.66,4.53-5.2,6.65h-2.6l-.87-57.53h2.89c1.74,5.2,3.95,10.26,6.65,15.18,2.7,4.91,5.64,9.54,8.82,13.88,3.18,4.34,6.55,8.14,10.12,11.42,3.56,3.28,6.98,5.78,10.26,7.52,3.28,1.74,7.61,3.47,13.01,5.2,5.39,1.74,10.6,2.6,15.61,2.6,14.26,0,25.82-3.9,34.69-11.71,8.86-7.81,13.3-18.36,13.3-31.66,0-5.39-.87-10.12-2.6-14.16-1.74-4.05-4.1-7.56-7.08-10.55-2.99-2.98-6.5-5.54-10.55-7.66-4.05-2.12-8.38-4.05-13.01-5.78-4.63-1.74-8.67-3.18-12.14-4.34-3.47-1.16-6.7-2.26-9.68-3.32-2.99-1.06-6.07-2.12-9.25-3.18-3.18-1.06-6.99-2.46-11.42-4.19-5.01-1.93-9.83-4.57-14.45-7.95-4.63-3.37-8.68-7.32-12.14-11.85-3.47-4.52-6.26-9.54-8.38-15.03-2.13-5.5-3.18-11.32-3.18-17.49,0-10.41,1.9-19.37,5.7-26.89,3.8-7.52,8.91-13.78,15.32-18.79,6.42-5.01,13.81-8.72,22.2-11.13,8.38-2.41,17.2-3.61,26.45-3.61,8.67,0,16.09.72,22.26,2.17,6.17,1.44,11.22,3.04,15.18,4.77,3.95,1.73,6.94,3.32,8.96,4.77,2.02,1.44,3.13,2.17,3.32,2.17.58,0,1.78-1.15,3.61-3.47,1.83-2.31,3.52-4.63,5.06-6.94h3.18v53.48h-3.18c-2.31-6.36-5.3-12.67-8.96-18.94-3.66-6.26-7.9-11.85-12.72-16.77-4.82-4.91-10.31-8.91-16.48-12-6.17-3.08-13.01-4.63-20.53-4.63-5.98,0-11.61.87-16.91,2.6-5.31,1.74-9.93,4.34-13.88,7.81-3.95,3.47-7.04,7.76-9.25,12.87-2.22,5.11-3.33,10.94-3.33,17.49,0,10.22,3.08,18.41,9.23,24.57,6.15,6.17,14.13,11.09,23.94,14.74,3.84,1.55,7.45,2.89,10.81,4.05,3.37,1.15,6.68,2.27,9.95,3.32,3.26,1.06,6.58,2.17,9.95,3.33,3.36,1.15,6.87,2.41,10.53,3.76,13.07,4.82,23.22,11.81,30.42,20.96,7.21,9.15,10.81,20.57,10.81,34.26,0,9.25-1.88,17.54-5.64,24.86Z"/>
</svg>