<?xml version="1.0" encoding="UTF-8"?>
<svg id="Layer_1" data-name="Layer 1" xmlns="http://www.w3.org/2000/svg" viewBox="0 0 1080 1080">
  <defs>
    <style>
      .cls-1 {
        fill: #fff;
      }

      .cls-2 {
        fill: none;
      }
    </style>
  </defs>
  <rect class="cls-2" width="1080" height="1080"/>
  <path class="cls-1" d="M532.01,181.23c-200.47,0-362.98,162.51-362.98,362.98,0,170.62,117.7,313.66,276.33,352.46,2.94.8,5.92,1.47,8.95,2.09l2.09-4.01,35.95-69.09,163.09-66.15,67.18,64.55v29.05c3.03-1.83,5.97-3.74,8.91-5.7,98.45-64.86,163.45-176.45,163.45-303.19,0-200.47-162.51-362.98-362.98-362.98ZM400.41,620.88l23.03-63.04,9.58-47.09c4.54.13,8.6.53,11.63,1.47,4.41,1.34,20.94,7.8,41.87,15.99,22.5,8.82,43.26,16.84,62.1,24.01v.04c-1.38,11.27-3.47,26.37-6.24,43.21-16.26-30.52-45.04-37.15-55.6-38.58-1.96-12.92-13.14-22.85-26.64-22.85-14.83,0-26.91,12.07-26.91,26.95s12.07,26.91,26.91,26.91c13.19,0,24.19-9.49,26.51-22.01,10.69,1.56,39.69,8.95,52.25,43.61l-66.2,44.32-55.15-20.09-17.15-12.87ZM634.83,392.35c-1.25,17.06-11.63,142.11-14.52,176.68-42.99-14.83-99.3-36.89-130.53-49.09-21.96-8.6-37.82-14.79-42.54-16.22-3.43-1.07-7.71-1.6-12.38-1.78l31.14-152.93c100.01,17.37,163.89,35.5,168.84,43.35ZM478.19,560.87v.13c0,9.93-8.11,18-18.04,18s-18-8.06-18-18,8.06-18.04,18-18.04,17.95,7.97,18.04,17.91ZM468.84,661.9v105.4c-16.93,13.5-36.35,27.09-48.96,30.52v-153.73l48.96,17.82ZM477.75,759.46v-98.27l60.27-40.36v.04c-9.09,49.14-22.54,103.4-38.49,119.92-.58.62-1.16,1.16-1.74,1.65l-.4.31-19.6,16.71h-.04ZM545.33,630.41c.76,2.63,1.47,5.12,2.14,7.57,8.33,29.58,14.17,50.25,39.6,61.39l-72.21,34.7c12.96-23.88,23.25-65.84,30.47-103.66ZM556.06,635.58c-2.05-7.35-4.37-15.59-7.22-24.5,4.28-24.81,7.08-45.8,8.29-55.55h.04v-.04c24.15,9.13,44.99,16.75,62.41,22.67v.04l-1.25,52.39-17.51,52.57-4.63,10.2c-26.37-8.86-31.09-25.66-40.14-57.78ZM494.77,815.1l8.06-53.59,19.2,42.5-27.26,11.09ZM530.32,800.67l-23.83-52.7h.04l91.23-43.83,50.65,48.6-118.1,47.93Z"/>
</svg>